:SAMPLES-PER-SECOND 30
:FULLY-SPECIFIED
:DEGREES
299
root  3.01052 39.1194 -4.68812 -8.14912 -36.8644 6.26661
RightUpLeg  -12.5161 -27.5402 -7.24064
RightLeg  42.4048 -1.64545 -18.474
RightFoot  -3.38039 -0.339084 3.92862
RightToes  1.74624e-010 -3.18055e-015 -2.98177e-016
Spine  0.158399 1.46014 0.817324
Spine1  14.2329 3.20179 -5.81208
HEad  -10.459 -3.19115 4.33546
LeftShoulder1  -3.88251e-019 9.70628e-020 -3.87848e-018
LeftArm  -17.3854 63.7613 -68.1777
LeftForeArm  -18.8963 -33.121 6.43051
LeftHand  -1.00402 -4.88928 12.0058
RightShoulder  7.37584 10.3833 35.0858
RightArm  22.3526 -44.3287 14.9615
RightForeArm  -0.668296 25.9681 -13.9475
RightHand  -1.08738 3.25439 -14.4326
LeftUpLeg  -7.05423 8.8714 -12.8702
LeftLeg  18.074 20.2764 11.1021
LeftFoot  -7.88935 -0.218543 4.34144
LeftToes  7.37594e-011 2.64622e-011 -6.25182e-011
300
root  2.88086 39.1361 -4.5239 -7.49988 -34.2245 5.46298
RightUpLeg  -13.5547 -25.8407 -7.2101
RightLeg  44.2685 -0.387188 -18.405
RightFoot  -2.70252 -0.179236 1.93984
RightToes  1.74624e-010 -3.18055e-015 -2.98177e-016
Spine  -0.268041 1.5776 1.37129
Spine1  14.3599 3.51947 -6.63963
HEad  -9.95228 -0.538102 3.64828
LeftShoulder1  -3.88251e-019 9.70628e-020 -3.87848e-018
LeftArm  -17.4027 63.4971 -67.843
LeftForeArm  -20.0275 -34.0064 6.62918
LeftHand  -1.08501 -5.30355 12.4372
RightShoulder  7.43509 10.4276 35.2895
RightArm  23.0664 -45.4842 14.8173
RightForeArm  -1.40176 27.9295 -14.9419
RightHand  -1.19853 4.01207 -14.6515
LeftUpLeg  -6.85414 7.5815 -12.4875
LeftLeg  18.1024 18.7932 10.7007
LeftFoot  -8.24385 -0.210019 4.43288
LeftToes  7.37594e-011 2.64622e-011 -6.25182e-011
301
root  2.69307 39.2257 -4.34697 -6.23682 -31.2918 4.16156
RightUpLeg  -13.9275 -22.533 -6.47035
RightLeg  43.9836 0.353525 -17.4664
RightFoot  -3.38723 -0.216919 2.5746
RightToes  1.74624e-010 -3.18055e-015 -2.98177e-016
Spine  -0.977931 1.64849 2.23483
Spine1  13.6438 3.65504 -7.19219
HEad  -8.09602 1.45122 3.22355
LeftShoulder1  -3.88251e-019 9.70628e-020 -3.87848e-018
LeftArm  -17.0682 62.9552 -67.8893
LeftForeArm  -20.323 -33.253 6.40015
LeftHand  -1.21435 -5.38859 13.7809
RightShoulder  7.4721 10.4454 35.4377
RightArm  23.3807 -46.5307 14.9636
RightForeArm  -0.752117 28.2773 -15.161
RightHand  -1.22399 4.35882 -14.4401
LeftUpLeg  -6.77775 5.4753 -11.6237
LeftLeg  17.6557 17.8692 10.1497
LeftFoot  -8.2336 -0.215552 4.55454
LeftToes  7.37594e-011 2.64622e-011 -6.25182e-011
302
root  2.4483 39.3317 -4.15143 -4.96432 -28.2296 2.97045
RightUpLeg  -13.7572 -17.7878 -5.71198
RightLeg  42.0315 0.456147 -16.2388
RightFoot  -4.02489 -0.27476 3.48214
RightToes  1.74624e-010 -3.18055e-015 -2.98177e-016
Spine  -1.51969 1.81475 2.47866
Spine1  11.9002 3.6382 -7.18779
HEad  -4.89086 2.61198 3.22202
LeftShoulder1  -3.88251e-019 9.70628e-020 -3.87848e-018
LeftArm  -17.0815 62.6118 -68.6586
LeftForeArm  -20.116 -31.432 5.917
LeftHand  -1.25969 -5.01873 14.7831
RightShoulder  7.4881 10.4487 35.5117
RightArm  24.3343 -47.6054 14.5386
RightForeArm  1.05795 27.9852 -15.0802
RightHand  -1.16303 4.4922 -13.5601
LeftUpLeg  -6.72204 2.92532 -10.6275
LeftLeg  17.0699 17.2771 9.45489
LeftFoot  -8.11867 -0.219725 4.5525
LeftToes  7.37594e-011 2.64622e-011 -6.25182e-011
303
root  2.16798 39.4167 -3.94719 -3.85876 -24.8348 2.19538
RightUpLeg  -13.2616 -12.4003 -5.38048
RightLeg  39.091 0.149932 -14.9646
RightFoot  -3.96467 -0.275999 3.47815
RightToes  1.74624e-010 -3.18055e-015 -2.98177e-016
Spine  -1.98907 1.84049 1.57542
Spine1  9.78581 3.25881 -6.30255
HEad  -1.28743 3.33322 3.64197
LeftShoulder1  -3.88251e-019 9.70628e-020 -3.87848e-018
LeftArm  -17.4435 62.5957 -69.8003
LeftForeArm  -19.8813 -29.4273 5.35368
LeftHand  -1.21878 -4.89282 14.4951
RightShoulder  7.48479 10.4438 35.5057
RightArm  25.5248 -48.4727 13.8284
RightForeArm  3.65063 27.4722 -14.9122
RightHand  -1.12928 5.09575 -12.4412
LeftUpLeg  -6.70547 0.508033 -9.87833
LeftLeg  16.2725 16.4358 8.59332
LeftFoot  -8.05078 -0.220219 4.50661
LeftToes  7.37594e-011 2.64622e-011 -6.25182e-011
304
root  1.87435 39.4809 -3.74976 -2.91836 -20.7115 1.80863
RightUpLeg  -12.3867 -7.41394 -5.59374
RightLeg  35.5063 -0.0552366 -13.4063
RightFoot  -3.98517 -0.277954 3.51485
RightToes  1.74624e-010 -3.18055e-015 -2.98177e-016
Spine  -2.71635 1.44285 -0.272964
Spine1  8.29417 2.40059 -4.71767
HEad  1.45699 3.75157 4.35232
LeftShoulder1  -3.88251e-019 9.70628e-020 -3.87848e-018
LeftArm  -17.8617 62.3767 -70.646
LeftForeArm  -19.1858 -27.5499 4.41664
LeftHand  -1.19009 -5.25637 13.6754
RightShoulder  7.46558 10.427 35.4457
RightArm  25.6557 -48.8993 13.8051
RightForeArm  5.68104 26.5859 -14.519
RightHand  -1.12457 5.54848 -11.8901
LeftUpLeg  -6.78751 -1.41256 -9.44786
LeftLeg  15.395 14.3936 7.60474
LeftFoot  -7.97538 -0.217177 4.37678
LeftToes  7.37594e-011 2.64622e-011 -6.25182e-011
305
root  1.58515 39.5358 -3.55798 -2.25546 -15.8383 1.59627
RightUpLeg  -10.8711 -3.5963 -6.18317
RightLeg  31.2289 0.346422 -11.2939
RightFoot  -4.71421 -0.285972 3.95686
RightToes  1.74624e-010 -3.18055e-015 -2.98177e-016
Spine  -3.5474 0.699703 -2.35302
Spine1  7.73076 1.27458 -2.91278
HEad  2.70323 3.63343 5.13333
LeftShoulder1  -3.88251e-019 9.70628e-020 -3.87848e-018
LeftArm  -18.7828 61.3965 -71.0268
LeftForeArm  -16.4528 -25.4446 2.66624
LeftHand  -1.18252 -5.3702 13.4481
RightShoulder  7.43964 10.3964 35.382
RightArm  24.3668 -49.0217 14.5354
RightForeArm  5.7885 25.4663 -13.9298
RightHand  -1.06487 4.95179 -11.9016
LeftUpLeg  -6.79731 -2.65951 -9.15835
LeftLeg  14.5927 10.9208 6.55097
LeftFoot  -7.89962 -0.211841 4.19972
LeftToes  7.37594e-011 2.64622e-011 -6.25182e-011
306
root  1.31798 39.5931 -3.36124 -1.9547 -10.7461 1.45538
RightUpLeg  -8.78516 -1.01832 -6.93151
RightLeg  26.3403 1.66142 -8.73541
RightFoot  -5.60065 -0.252155 3.95272
RightToes  1.74624e-010 -3.18055e-015 -2.98177e-016
Spine  -3.94268 0.020374 -3.94077
Spine1  7.49376 0.344643 -1.41189
HEad  2.66583 2.8241 5.87952
LeftShoulder1  -3.88251e-019 9.70628e-020 -3.87848e-018
LeftArm  -21.0522 59.719 -71.2568
LeftForeArm  -10.5275 -22.7069 0.301765
LeftHand  -1.10816 -4.67931 13.4895
RightShoulder  7.40802 10.3537 35.3163
RightArm  22.4482 -49.2451 15.1055
RightForeArm  4.61453 24.5739 -13.4173
RightHand  -0.993412 4.0432 -12.1372
LeftUpLeg  -6.51894 -3.37026 -8.91234
LeftLeg  13.8398 6.7335 5.48487
LeftFoot  -7.84677 -0.205307 4.01802
LeftToes  7.37594e-011 2.64622e-011 -6.25182e-011
307
root  1.07677 39.6469 -3.16337 -1.83621 -6.10494 1.42159
RightUpLeg  -6.79328 0.470801 -7.74691
RightLeg  21.5266 4.02232 -6.17441
RightFoot  -6.09674 -0.206834 3.53986
RightToes  1.74624e-010 -3.18055e-015 -2.98177e-016
Spine  -3.7687 -0.258116 -4.5311
Spine1  7.03471 0.0154724 -0.837659
HEad  1.82778 1.42578 6.66946
LeftShoulder1  -3.88251e-019 9.70628e-020 -3.87848e-018
LeftArm  -24.1974 57.8844 -71.4781
LeftForeArm  -2.86101 -19.5664 -1.72582
LeftHand  -0.960561 -3.71931 12.9805
RightShoulder  7.37841 10.3166 35.248
RightArm  20.7917 -49.7538 14.9898
RightForeArm  3.78561 23.9713 -13.0752
RightHand  -1.03343 4.09321 -12.5518
LeftUpLeg  -6.0906 -3.90716 -8.73858
LeftLeg  13.1178 2.83984 4.55071
LeftFoot  -7.79499 -0.198137 3.82709
LeftToes  7.37594e-011 2.64622e-011 -6.25182e-011
308
root  0.840945 39.69 -2.97868 -1.6371 -2.28319 1.41375
RightUpLeg  -5.60969 0.443419 -8.47172
RightLeg  17.6028 7.38762 -4.03898
RightFoot  -6.31137 -0.214578 3.7903
RightToes  1.74624e-010 -3.18055e-015 -2.98177e-016
Spine  -3.4639 -0.0986122 -3.92687
Spine1  6.53043 0.363541 -1.57211
HEad  0.394494 -0.318038 7.54184
LeftShoulder1  -3.88251e-019 9.70628e-020 -3.87848e-018
LeftArm  -26.1321 56.4137 -71.5802
LeftForeArm  2.7642 -17.0485 -2.6662
LeftHand  -0.878101 -3.30697 12.4679
RightShoulder  7.39057 10.3256 35.2899
RightArm  19.8737 -50.1977 14.5281
RightForeArm  3.77271 23.2371 -12.7047
RightHand  -1.15485 4.8583 -13.0005
LeftUpLeg  -5.8621 -4.42096 -8.5132
LeftLeg  12.5784 -0.350642 3.87549
LeftFoot  -7.74158 -0.185397 3.52007
LeftToes  7.37594e-011 2.64622e-011 -6.25182e-011
309
root  0.580167 39.7277 -2.81402 -1.31196 0.662345 1.24477
RightUpLeg  -5.41738 -1.36334 -8.78942
RightLeg  14.8486 11.0102 -2.65381
RightFoot  -6.18214 -0.281282 4.78446
RightToes  1.74624e-010 -3.18055e-015 -2.98177e-016
Spine  -3.31563 0.382567 -2.42472
Spine1  6.29436 1.17928 -3.20682
HEad  -1.61612 -2.08623 8.36819
LeftShoulder1  -3.88251e-019 9.70628e-020 -3.87848e-018
LeftArm  -26.326 55.7096 -71.4657
LeftForeArm  4.45248 -16.195 -2.86176
LeftHand  -0.897671 -3.39214 12.6129
RightShoulder  7.46094 10.3898 35.5052
RightArm  19.5785 -50.1082 14.2771
RightForeArm  4.44908 22.1195 -12.0572
RightHand  -1.19611 5.20522 -13.0304
LeftUpLeg  -5.96402 -4.82307 -8.00963
LeftLeg  12.3419 -2.87493 3.48144
LeftFoot  -7.75702 -0.155333 2.88294
LeftToes  7.37594e-011 2.64622e-011 -6.25182e-011
310
root  0.271609 39.7572 -2.66927 -0.976855 2.82574 0.989919
RightUpLeg  -5.99533 -3.29036 -8.73714
RightLeg  13.3023 12.4379 -2.15773
RightFoot  -5.55736 -0.355774 5.47972
RightToes  1.74624e-010 -3.18055e-015 -2.98177e-016
Spine  -3.06553 1.032 -0.799319
Spine1  6.15837 2.16026 -4.91004
HEad  -4.07721 -3.51679 9.03761
LeftShoulder1  -3.88251e-019 9.70628e-020 -3.87848e-018
LeftArm  -25.3922 56.0616 -71.1426
LeftForeArm  2.18139 -17.3682 -2.57105
LeftHand  -0.878294 -3.31137 12.4531
RightShoulder  7.53072 10.4555 35.7124
RightArm  18.9341 -49.4637 14.5494
RightForeArm  6.9046 20.8183 -10.9597
RightHand  -1.12552 5.07475 -12.421
LeftUpLeg  -6.24084 -5.10924 -7.30977
LeftLeg  12.324 -4.74438 3.30682
LeftFoot  -7.91934 -0.104585 1.83852
LeftToes  7.37594e-011 2.64622e-011 -6.25182e-011
